<svg xmlns="http://www.w3.org/2000/svg" width="800" height="100" viewBox="0 0 800 100">
  <!-- 지면 배경 -->
  <rect x="0" y="0" width="800" height="100" fill="#8FBC8F" />
  
  <!-- 지면 패턴 -->
  <g opacity="0.8">
    <!-- 잔디 패턴 -->
    <path d="M20,0 L20,15 L15,10 L20,0" fill="#7EA172" />
    <path d="M60,0 L60,10 L65,5 L60,0" fill="#7EA172" />
    <path d="M120,0 L120,12 L125,6 L120,0" fill="#7EA172" />
    <path d="M180,0 L180,14 L175,7 L180,0" fill="#7EA172" />
    <path d="M240,0 L240,10 L235,5 L240,0" fill="#7EA172" />
    <path d="M300,0 L300,13 L305,7 L300,0" fill="#7EA172" />
    <path d="M360,0 L360,11 L355,5 L360,0" fill="#7EA172" />
    <path d="M420,0 L420,15 L425,8 L420,0" fill="#7EA172" />
    <path d="M480,0 L480,13 L475,7 L480,0" fill="#7EA172" />
    <path d="M540,0 L540,10 L545,5 L540,0" fill="#7EA172" />
    <path d="M600,0 L600,12 L595,6 L600,0" fill="#7EA172" />
    <path d="M660,0 L660,14 L665,7 L660,0" fill="#7EA172" />
    <path d="M720,0 L720,10 L715,5 L720,0" fill="#7EA172" />
    <path d="M780,0 L780,13 L785,7 L780,0" fill="#7EA172" />
  </g>
  
  <!-- 지면 윗 경계선 -->
  <line x1="0" y1="0" x2="800" y2="0" stroke="#6B8E23" stroke-width="2" />
  
  <!-- 흙 패턴 -->
  <g opacity="0.3">
    <ellipse cx="100" cy="70" rx="30" ry="15" fill="#654321" />
    <ellipse cx="300" cy="80" rx="40" ry="10" fill="#654321" />
    <ellipse cx="500" cy="75" rx="35" ry="12" fill="#654321" />
    <ellipse cx="700" cy="65" rx="25" ry="15" fill="#654321" />
  </g>
</svg> 